<?xml version="1.0"?>
<svg
 xmlns="http://www.w3.org/2000/svg"
 version="1.0"
 width="295"
 height="70">
<path d="m 216.563,3.40636 c -3.29003,1.71877 -6.59601,4.1059 -6.625,4.1875 -0.18337,0.51607 3.4181,-2.18025 7.76072,-4.3223 2.85598,-1.40875 5.31067,-2.9558 7.62186,-2.71182 1.61702,0.1707 3.40228,0.36734 5.39331,2.49843 2.36815,2.53474 2.40617,13.4663 1.53661,19.37944 -0.80681,5.7865 -2.90464,9.94016 -8.90625,14.90625 -4.36535,3.61215 -3.93688,3.36661 -5.90625,4.1875 1.53408,-2.94823 2.28494,-4.21033 2.96875,-7.65625 0.31217,-1.57314 0.94768,-3.32633 0.90625,-6.4375 -0.0399,-2.9379 -0.23936,-4.43752 -1.96875,-4.4375 -2.19416,0 -4.69067,4.17601 -4.15625,4.8125 0.40225,0.47907 1.33713,-1.04255 2.09375,-2.0625 0.49429,-0.66632 1.10127,-0.86727 1.53125,-0.5625 0.47941,0.33981 1.45509,2.72975 -0.53125,10.28125 -0.64964,2.46974 -2.17892,4.99152 -3,6.34375 -0.79029,1.30153 -2.1776,2.86318 -2.1875,3.15625 -0.0101,0.29782 1.24741,0.0625 2.25,-0.34375 1.77106,-0.7176 5.83041,-3.28154 10.875,-7.34375 5.04459,-4.06221 5.69197,-7.40637 6.89312,-12.25395 1.27133,-5.13081 0.88586,-10.42543 0.37833,-15.49605 -0.76813,-6.47888 -3.20933,-9.53124 -8.33395,-9.53125 -3.11865,0.1191 -5.89825,1.9774 -8.59375,3.40625 z m 58.46875,7.6875 c -0.84676,-0.0347 -1.98872,0.39696 -3.3125,1.375 -2.65167,1.95912 -6.33952,8.66259 -6.375,12.25 -0.0121,1.22181 -1.09138,4.59684 -2.375,7.5 -1.28362,2.90318 -1.73561,5.67668 -1.875,6.65625 -0.1421,0.99865 -0.69396,3.04229 -0.21875,4.0625 0.42683,0.91634 1.31512,1.11369 3.0625,0.4375 1.74739,-0.67619 3.28456,-0.69861 3.25,-1.3125 -0.022,-0.39046 -0.97066,-0.39237 -3,-0.5 -1.81704,-0.0964 -1.54735,-1.06896 -0.3125,-5.75 0.89136,-3.379 2.52316,-6.20002 5.03125,-8.65625 2.94853,-3.59031 5.4598,-7.80302 7.46875,-12.3125 0.66893,-2.33241 0.0675,-3.69217 -1.34375,-3.75 z m -155.1875,0.96875 c -1.15071,0.2999 -1.73365,0.39398 -2.375,1.09375 -0.45161,0.49277 -0.57095,0.80536 -0.875,1.5 -1.25748,-0.0276 -2.15426,0.38426 -3.625,0.875 -2.03996,0.68068 -5.03331,1.85267 -7.09375,4.0625 -1.24503,1.33531 -3.4299,6.41907 -3.0625,6.5625 0.3682,0.14373 2.56304,-4.85346 5.9375,-6.96875 6.47741,-4.06038 11.27714,-3.45324 13.46875,-0.8125 2.97621,3.58611 0.60218,4.87395 -13.90625,7.53125 -7.14357,1.30837 -10.24334,3.71281 -11.59375,9.8125 -0.56111,2.53446 -0.63221,3.48868 0.1875,4.59375 0.37191,0.50135 0.60214,0.60795 0.875,0.71875 0.39251,0.1594 0.63225,0.26577 0.9375,0.25 0.40971,-0.0212 1.64598,-0.48244 1.53125,-0.84375 -0.14667,-0.4619 -1.71894,0.50963 -2.5,-0.90625 -0.42689,-0.77386 -0.33771,-3.06417 0.46875,-4.875 0.73716,-1.65523 1.34939,-2.55636 2.4375,-3.78125 0.5303,-0.59696 2.71798,-1.85112 3.875,-2.25 2.35185,-0.81078 4.77815,-0.60522 10.78125,-1.71875 3.575,-0.66314 6.94771,-1.84803 7.75,-2.1875 0.99753,-0.42208 0.94979,-0.43125 1.42187,0.875 0.12501,0.34588 0.19298,0.30388 0.0305,1.1557 -0.60946,1.28724 -2.58349,3.172 -3.95242,4.8443 -1.90782,2.33062 -5.21251,5.81551 -6.3125,7.15625 -0.59681,0.72744 -2.7027,2.62476 -3.10937,3.125 -0.40668,0.50024 -0.82814,0.72301 -0.82813,1.09375 0,1.33759 3.19896,1.39652 5.75,0.0312 5.19151,-2.77841 8.74541,-9.30461 9.70312,-12.1875 0.39588,-1.19166 0.18235,-0.54449 0.57543,-2.04139 0.14856,-0.56572 0.37187,-0.76364 0.4014,-2.13222 0.81335,-1.02941 0.46768,-0.64647 1.74369,-1.94067 1.276,-1.2942 2.77651,-2.58657 3.82034,-3.13729 1.07481,-0.56706 1.40196,-0.72555 1.70803,-0.49464 0.30408,0.22939 -0.34752,1.10442 -0.51451,1.33996 -1.46584,2.00393 -3.17388,3.88558 -4.40625,6.09375 1.49496,-1.30289 2.77966,-2.84607 4.0625,-4.40625 0.77191,-1.11362 1.48326,-2.17721 1.9375,-2.9375 0.83286,-1.72856 -2.51252,-1.24893 -5.59375,1.34375 l -2.96875,2.46875 -0.6875,-4.71875 c -0.38584,-2.60926 -1.41988,-5.53752 -2.28125,-6.5 -0.9479,-1.05919 -2.40228,-1.6266 -3.71875,-1.6875 z m -0.34375,0.9375 c 0.15515,-0.002 0.30145,0.0225 0.46875,0.0625 0.64979,-0.11066 1.48858,0.44914 2.09375,1.40625 0.52165,0.82502 1.17641,2.96137 1.17586,2.68344 -4.9e-4,-0.24283 -1.98423,-1.78579 -3.08211,-2.05844 -0.95747,-0.23778 -1.92624,-0.33405 -2.90625,-0.375 0.35966,-0.74308 1.16394,-1.70325 2.25,-1.71875 z m 154.21875,0.46875 c 0.37307,-0.0827 0.59375,0.13749 0.59375,0.75 0,0.84097 -1.13875,3.57102 -2.53125,6.0625 -4.72257,8.44959 -6.80704,7.40422 -3.3125,-0.5 1.66657,-3.76958 4.1308,-6.06448 5.25,-6.3125 z m -220.0625,1.1875 c -0.49882,0.009 -0.99579,0.13159 -2.3125,0.8125 -1.64594,0.85115 -3.12809,2.28551 -4.47097,3.73483 -1.34288,1.44932 -0.98459,1.13233 -2.67234,3.35356 C 42.93951,20.03239 42.91441,18.31663 39.688,16.90636 32.79575,14.97429 26.18108,16.91036 19.71925,19.18761 10.71554,22.86726 -0.08878,32.07298 5e-4,32.96886 c 0.0767,0.76992 5.09563,-3.29205 7.5625,-5.3125 5.25517,-4.30409 20.1515,-10.01626 26.875,-9.65625 3.70495,0.19838 4.81166,0.70187 6.25,2.25 0.88552,0.95311 1.24963,2.32205 1.5625,3.90625 0.0641,0.38828 0.15935,0.80662 -0.0161,1.17456 -0.34431,0.72211 -2.73388,4.81535 -3.92142,7.16919 -1.15354,2.28644 -1.7959,3.67212 -2.71875,5.15625 -0.92913,1.49424 -2.18809,3.73462 -3.28125,5.5 -0.15745,0.21196 -0.35571,0.46693 -0.71875,0.96875 -0.4714,0.33053 -0.44376,0.29192 -0.78125,0.5 -0.27219,0.16784 -0.64822,0.24875 -1.0625,0.40625 -1.4081,0.53535 -2.29434,1.37942 -1.96875,1.90625 0.88549,1.43276 3.92302,0.005 9.125,-4.34375 5.09535,-4.25918 8.71396,-11.0769 8.25,-15.5 -0.0847,-0.80793 -0.12887,-1.29662 -0.41919,-2.72097 0.90638,-1.31485 0.95022,-1.43223 1.57858,-2.33839 1.62291,-2.34042 3.79152,-4.18151 5.0013,-5.14552 1.03775,-0.82693 1.97942,-1.23704 2.33931,-0.79512 0.6126,0.75223 -0.71877,2.66855 -2.03125,4.53125 -1.0917,1.54935 -2.06911,2.71404 -1.9375,3.03125 0.0829,0.19994 5.89199,-6.43806 5.21875,-8.25 -0.24392,-0.65648 -0.75119,-0.75861 -1.25,-0.75 z m 107.375,1.34375 c -7.8793,3.6397 -12.05054,10.97721 -17.0625,17.46875 -0.47946,0.47349 -1.24819,1.47018 -1.65625,1.875 l -3.9375,3.90625 c -1.37102,1.36014 -2.65046,0.1806 -4.375,0.875 -0.31372,0.42278 -0.61856,0.85161 -1.1875,1.875 -0.51711,0.93016 -1.50001,1.64233 -1.5,2.125 0,1.79338 3.68546,0.78772 6.875,-1.875 l 3.28125,-2.75 2.375,-2.6875 2.125,0.0937 c -0.80921,1.55339 -1.59849,3.13482 -2.375,4.71875 -1.99631,3.06083 -2.03423,3.37498 -0.4375,3.375 0.96956,0 2.65112,-0.66468 3.71875,-1.46875 1.88864,-1.42243 1.66831,-2.07068 -0.25,-1.0625 -0.68067,0.35773 -1.89143,0.86687 -2.03125,0.71875 1.31267,-2.28688 2.47916,-4.96079 3.5625,-7.125 2.9046,-5.69058 4.84266,-12.42431 9.65625,-16.46875 3.18942,-2.08979 3.1525,-1.32828 -0.125,2.96875 -1.44028,1.8883 -2.22777,3.42626 -1.75,3.40625 1.22837,-0.0515 6.37499,-7.01304 6.375,-8.625 0,-0.73643 -0.58367,-1.34377 -1.28125,-1.34375 z m 117.84375,1.21875 c -4.64,1.13558 -6.36347,8.325 -6.21875,11.65625 0.14471,3.33124 0.49196,3.4034 0.90625,4.875 -0.83214,0.15918 -1.62652,0.20638 -2.375,1.21875 -2.49554,3.37539 -2.115,7.81248 0.625,7.8125 1.05416,-2e-5 1.9993,-0.90806 2.5625,-1.5 l 1.09375,-1.28125 c 0.47892,0.81085 0.96624,1.35763 1.625,2.0625 2.3388,2.50251 3.20494,2.39012 5.96875,2.34375 3.86415,-0.0648 12.86983,-11.023 11.90625,-12.03125 -0.34274,-0.35862 -3.02593,2.57243 -4.59375,4.25 -1.56781,1.67756 -4.28574,3.62071 -6.03125,4.34375 -2.82896,1.1718 -3.37273,1.13196 -5.03125,-0.5625 -1.81515,-1.85445 -1.81689,-2.05279 0.59375,-7.90625 1.66933,-4.05344 2.69527,-7.45994 2.5,-10.5 -0.27956,-4.35246 -0.48685,-4.9131 -3.53125,-4.78125 z M 65.65675,18.00011 c -3.16765,0 -11.27323,10.21376 -11.875,14.96875 -0.26913,2.12657 -1.01236,4.2614 -2.03125,6.03125 -1.12822,1.95973 -1.3818,2.94076 -2.09375,4.125 -0.59306,1.43164 -1.25706,2.08427 0.59375,2.28125 2.51223,-0.20223 5.00914,-0.43443 6.125,-0.75 2.26227,-0.63977 4.44498,-1.07712 4.15625,-1.5625 -0.16769,-0.28191 -2.56997,-0.15554 -5.46875,-0.0312 -2.0609,0.0884 -3.84376,-0.098 -3.84375,-0.375 0,-0.27698 0.99374,-2.38514 2.09375,-4.4375 0.78197,-1.45898 1.41338,-3.34036 1.75,-4.84375 0.13689,-0.61141 0.21438,-1.16227 0.25,-1.59375 0.22321,-2.70419 6.57664,-10.81252 8.96875,-10.8125 1.0049,0 1.83702,-0.63964 0.78125,1.78125 -1.05577,2.42092 -3.99599,6.70452 -5.5625,8.34375 -1.5665,1.63924 -2.40735,2.5223 -3.09375,3.875 -2.00235,3.94605 6.81858,-5.91157 9,-10.1875 1.5998,-3.13587 1.72983,-6.81252 0.25,-6.8125 z M 89.438,19.15636 c -0.15103,0.007 -0.30446,0.0143 -0.46875,0.0312 -1.3143,0.13546 -3.02053,0.56624 -4.40625,1.65625 -4.66455,4.6943 -6.57256,11.19444 -9.09375,17.15625 -1.03141,1.92318 -2.9011,3.69635 -4.1875,4 -0.70279,0.1659 -1.61147,0.10545 -2.125,0.46875 -0.41788,0.29561 -0.49321,1.01088 -0.59375,1.3125 -0.22411,0.67233 0.33685,1.21873 1.25,1.21875 2.17468,0 5.7993,-3.20686 7.46875,-7.78125 1.66945,-4.57437 5.29076,-11.75874 6.40625,-13.125 1.12639,-1.37957 3.02966,-3.1436 4.15625,-3.125 0.512,0.008 1.20189,0.14596 1.28125,0.625 0.25762,1.55531 -2.09513,4.98165 -5.65625,8.125 -2.01581,1.77932 -3.14374,3.24181 -2.53125,3.25 2.41719,0.0323 10.30351,-9.58556 10.3125,-12.59375 0.002,-0.7106 -0.54791,-1.12588 -1.375,-1.21875 -0.13785,-0.0155 -0.28647,-0.007 -0.4375,0 z m 189.40625,0.1875 c 0.83789,-0.0341 1.38164,1.00598 1.625,4.0625 0.0789,3.23291 -1.02511,7.17581 -2.5625,10.125 -1.30331,1.78239 -2.17122,1.76292 -2.8125,-2.03125 -0.93988,-5.56075 -0.84968,-4.52153 0.53125,-8.71875 0.61953,-1.88301 2.38086,-3.40337 3.21875,-3.4375 z m -126.96875,5.75 c -1.47764,3.49607 -3.12958,6.50661 -4.9375,9.78125 l -2.0625,-0.0312 c 0.6031,-1.01632 1.26035,-2.03134 2.09375,-3.34375 0.043,0.071 4.7142,-6.429 4.90625,-6.40625 z m 46.40625,1 c -0.32288,0.0525 -0.62047,0.34271 -0.96875,0.90625 -0.65858,1.0656 -0.44296,1.68479 0.78125,2.125 2.06485,0.74246 2.89067,-0.85932 1.28125,-2.46875 -0.43609,-0.4361 -0.77087,-0.61495 -1.09375,-0.5625 z m -155.625,1.28125 c 0.11244,2.17367 -0.0757,4.42892 -0.625,6.21875 -1.09516,3.56835 -7.30492,8.87788 -9.09375,9.84375 0.89312,-1.37885 0.67466,-0.87717 2.375,-3.625 1.69036,-2.73171 1.82968,-2.67489 3.5,-5.5625 1.76584,-3.05273 3.51706,-6.15876 3.78125,-6.65625 0.006,-0.0107 0.046,-0.16967 0.0625,-0.21875 z m 193.65625,1.625 c -0.55,0 -1.00001,0.44998 -1,1 0,0.55 0.44999,0.99998 1,1 0.55,0 0.99999,-0.45002 1,-1 0,-0.55 -0.45001,-1.00002 -1,-1 z m 48.625,1 c -0.89234,0 -1.62501,0.67498 -1.625,1.5 0,0.825 0.16733,1.49998 0.375,1.5 0.20765,0 0.9403,-0.67502 1.625,-1.5 1.01957,-1.22851 0.95379,-1.50002 -0.375,-1.5 z m -117.625,1 c -0.58114,0 -1.58548,1.23748 -2.25,2.75 -0.38469,0.95361 -0.88423,1.79219 -1.375,2.625 -0.0776,0.13168 0.20999,-0.37151 -0.46875,0.75 -0.53448,0.23336 -1.41228,0.47123 -1.5,0.625 -0.19832,0.34762 0.69211,0.40738 0.90625,0.625 0.0514,0.0522 -0.36607,0.69379 -0.40625,0.78125 -0.33237,0.7235 -0.3083,0.89039 -0.4375,1.75 -0.15997,2.03346 0.22612,3.09374 1.09375,3.09375 1.054,1e-5 1.65952,-0.52604 2.125,-1 0.34999,-0.35639 0.72167,-0.64383 0.53125,-0.9375 -0.15518,-0.23936 -2.15295,0.30437 -2.25,0.0625 -0.37398,-0.93209 0.48303,-2.70977 0.78125,-3.25 0.30287,-0.54865 -0.0995,0.19186 0.3125,-0.5 1.11602,-0.27582 2.48586,-0.79301 3.9375,-1.4375 0.5193,-0.21554 0.81711,-0.73213 0.71875,-0.84375 -0.0883,-0.10021 -1.08716,0.17581 -1.46875,0.21875 -0.69971,0.0788 -1.51949,0.34728 -2.125,0.34375 0.24875,-0.4577 1.38433,-2.7312 1.8125,-3.53125 0.772,-1.44249 0.77903,-2.12502 0.0625,-2.125 z m -42.83238,-2.14553 c -0.29321,1.86127 -0.78218,3.72888 -1.35512,4.55178 -2.05779,2.95553 -5.77474,7.29923 -9.65625,8.07812 -0.30321,0.0608 -0.77602,-0.006 -1.02344,-0.0937 0.72493,-0.74022 1.687,-1.64505 2.36719,-2.35937 0.93592,-0.98287 3.30992,-3.18706 5.13572,-5.13258 1.5796,-1.79005 3.02051,-3.35633 4.5319,-5.0442 z M 87.313,31.78136 c -0.55,0 -1.1875,0.66873 -1.1875,1.21875 0,0.55 0.91875,1.15623 1.46875,1.15625 0.55,0 1.00001,-0.63751 1,-1.1875 0,-0.55 -0.73126,-1.18749 -1.28125,-1.1875 z m 157.3125,0.125 c -0.30173,-0.0303 -0.80034,0.2075 -1.25,1.5 -0.44481,1.27857 -1.68822,4.89065 -3,7.34375 -0.9003,1.58003 -2.64655,2.3157 -2.9375,0.9375 -0.15962,-0.7561 0.55338,-2.48715 1.375,-4.0625 0.82161,-1.57537 1.49999,-3.48789 1.5,-4.25 0,-1.90466 -2.42684,-1.6547 -3.40625,0.1875 -1.1572,2.17661 -0.12875,2.41339 -0.0937,1.875 0.0359,-0.55269 0.67549,-1.15247 0.9375,-1.375 0.25283,-0.21471 0.78225,-0.002 0.8125,0.25 0.0301,0.25133 -0.25015,0.78522 -1.8125,4.03125 -2.49145,4.98149 -0.59289,7.12026 2.28125,6.1875 1.03987,-0.33747 0.92415,-0.4172 1.625,-1.0625 0.4321,-0.39786 0.68683,-0.87001 0.8125,-0.875 0.19902,-0.008 0.14169,0.91022 0.65625,1.34375 0.4259,0.35881 0.67359,0.71675 1.59375,0.71875 0.92017,0.002 1.32448,-0.22111 2.90625,-1.34375 0.44424,-0.29612 0.7273,-0.97757 0.59375,-1.1875 -0.95974,0.60188 -2.49654,0.9969 -3.78125,0.375 -0.58693,-0.81556 0.10963,-3.67996 0.90625,-6.09375 0.85162,-2.58042 0.94507,-4.43344 0.28125,-4.5 z m -41.34375,0.15625 c -0.46936,0.0365 -1.11436,0.45812 -1.78125,1.125 -1.14691,1.14516 -1.54994,2.64728 -1.90625,4.1875 -0.12437,0.57742 -0.27172,1.61676 -0.40625,2.84375 -0.13453,1.22699 -0.32119,2.71527 1.09375,3.46875 1.41494,0.75348 2.29665,-1.01485 3.53125,-3.0625 1.56052,-3.00488 2.27505,-5.6832 1.625,-7.21875 -0.0128,-0.0302 0.1098,-0.31269 0.28125,-0.5 0.19757,-0.21587 0.24416,-0.33672 0.25,-0.625 -0.39502,-0.17176 -0.92032,-0.0914 -1.4375,-0.0625 -0.51642,0.0289 -0.78064,-0.1927 -1.25,-0.15625 z m 49.65625,0.15625 c -2.17317,0.0903 -4.81251,3.10415 -4.8125,6.03125 -0.34591,3.50033 -0.13644,4.72096 0.28125,5.53125 0.4177,0.81027 1.68454,-0.19293 2.46875,-0.84375 0.48743,-0.40452 1.80379,-2.288 2.34375,-2.96875 0.003,0.699 0.24438,2.45225 0.59375,3.09375 0.34937,0.6415 2.22005,0.95036 3.71875,0.4375 1.5187,-0.51968 1.85898,-1.7504 1.6875,-1.90625 -0.18299,-0.16632 -2.18451,0.40468 -2.78125,0.375 -1.78884,-0.089 -1.94465,-0.27713 -1.6875,-4.46875 0.22462,-3.66138 0.38119,-4.63093 -0.90625,-5.125 -0.29112,-0.11171 -0.5958,-0.16915 -0.90625,-0.15625 z m -19.75,0.40625 c -0.0882,0.0111 -0.17736,0.0357 -0.28125,0.0625 -1.66226,0.42954 -2.10931,1.68842 -2.125,1.90625 -0.0157,0.21783 0.89702,-0.43896 1.28125,-0.34375 0.28745,0.0712 0.20456,0.69616 0.21875,0.84375 0.0819,0.85159 -0.76717,2.59801 -2,4.6875 -1.59191,2.69808 -1.80546,3.7181 -0.84375,4.3125 0.68969,0.42625 1.97676,0.37026 2.84375,-0.0937 0.14868,-0.0796 3.18204,-1.16935 2.53125,-1.75 l -2,-0.21875 c -2.38559,-0.24041 -2.1135,-1.14138 0.0312,-5.125 1.27782,-2.37341 1.63527,-4.1614 0.59375,-4.28125 -0.0744,-0.009 -0.16176,-0.011 -0.25,0 z m -57.25,0.3125 c -0.4108,-0.01 -0.83907,0.0409 -1.0625,0.0312 -1.47646,-0.064 -3.99782,2.42395 -5.5,6.375 -0.59222,1.55764 -0.81139,3.24612 -0.5,3.75 1.83369,2.96696 6.16859,-1.3592 7.0625,-7.03125 0.0802,-0.50901 -0.053,-0.9943 0.0937,-1.34375 0.16381,-0.39013 0.90968,-1.17976 0.8125,-1.4375 -0.0975,-0.25856 -0.49545,-0.33409 -0.90625,-0.34375 z m 5.125,0.0625 c -0.80969,-0.0134 -1.94991,0.55024 -2.875,1.6875 -1.19764,1.47234 -1.17018,1.58649 0.3125,1.03125 1.28879,-0.48265 1.55214,-0.19504 1.09375,1.09375 -0.33237,0.93449 -0.90202,2.13748 -1.28125,2.6875 -0.37924,0.55 -0.96938,1.78748 -1.3125,2.75 -0.37547,1.05326 -0.14288,1.74999 0.59375,1.75 0.71174,1e-5 2.09853,-3.27089 3,-5.5 0.15145,-0.60388 0.98317,-1.51568 1.53125,-1.90625 0.96704,-0.73692 1.58985,-1.07789 2.09375,-1.09375 0.50342,-0.0159 0.77063,0.18773 0.8125,0.65625 0.0243,0.27209 -0.008,0.30693 -0.15625,0.75 -0.14766,0.43988 -0.9077,1.85792 -1.46875,2.90625 -0.60678,1.13378 -1.09376,2.53881 -1.09375,3.125 0,1.4342 3.69664,1.35779 4.59375,-0.0937 0.42587,-0.68907 0.27282,-0.90036 -0.375,-0.5 -1.91988,1.18655 -2.33308,-1.18872 -0.75,-4.25 1.17787,-2.27774 0.94557,-3.86661 -0.125,-3.9375 -0.48662,-0.0322 -1.31103,-0.009 -2.1875,0.53125 -0.21433,0.13212 -0.73637,0.41118 -1.1875,0.71875 -0.37766,0.25749 -0.59104,0.48036 -0.90625,0.65625 0.0362,-0.11034 0.55692,-1.19963 0.59375,-1.3125 0.37408,-1.14639 -0.0966,-1.73659 -0.90625,-1.75 z m 12.1875,0.21875 c -0.4019,0.0373 -0.93575,0.25545 -1.625,0.65625 -1.00375,0.58369 -1.26398,1.07705 -0.59375,1.09375 1.29512,0.0323 0.75609,2.53696 -1.0625,4.875 -0.57649,0.74114 -1.20414,2.2554 -1.375,3.375 -0.28217,1.84896 0.0498,1.96563 3.46875,1.28125 1.61455,-0.32317 3.9378,-0.90783 4.59375,-1.28125 0.65595,-0.37341 1.80347,-1.73366 1.5,-1.9375 -0.31103,-0.20889 -0.96659,0.3249 -2.03125,0.4375 -1.06466,0.1126 -3.94989,0.4876 -4.40625,0.0312 -0.27293,-0.27292 0.27161,-2.13883 1.21875,-4.125 1.43633,-3.01201 1.51819,-4.51827 0.3125,-4.40625 z m -38.8125,0.78125 c -0.95452,0 -1.51682,0.249 -1.875,0.6875 -0.47386,0.58014 -0.73987,1.02234 -0.40625,1.15625 0.32794,0.13164 1.06458,-0.83465 1.71875,-0.75 0.65633,0.0849 0.47226,0.53113 0.375,0.84375 -0.10171,0.32693 -0.8224,1.29938 -1.125,1.84375 -0.28942,0.52069 -0.59606,1.06457 -1.15625,2.1875 -0.91835,1.84088 -1.09376,3.40324 -1.09375,3.59375 0,0.1905 0.17708,0.43748 1.09375,0.4375 0.91666,0 1.12598,-0.24899 0.90625,-0.625 -0.58228,-0.99641 2.19963,-6.37502 3.4375,-6.375 0.59275,0 0.57752,0.96129 -0.0312,2.5625 -1.31052,3.44692 -1.22132,4.70718 0.28125,4.15625 0.44801,-0.16427 1.43098,-0.45669 1.5625,-0.90625 0.0703,-0.24034 -1.07475,-0.0852 -1.1875,-0.5625 -0.11275,-0.47732 0.81499,-2.85911 1.46875,-4.4375 1.41582,-3.41809 0.62952,-4.64956 -1.75,-2.71875 -1.13552,0.92139 -1.46563,0.98333 -0.96875,0.15625 0.50084,-0.83366 0.0839,-1.25002 -1.25,-1.25 z m 97.6875,0.15625 c 1.06022,-0.19984 0.93749,1.94231 0.9375,2.875 -10e-6,0.99488 -1.46975,3.20785 -2.5,4.0625 -0.89699,0.74411 -0.9201,0.0921 -0.875,-1.5 0.32162,-2.31719 0.91128,-4.78126 2.21875,-5.34375 0.0817,-0.0352 0.14807,-0.0804 0.21875,-0.0937 z m -144.03125,0.0312 c -0.85747,-2e-5 -1.27743,0.44998 -0.9375,1 0.33991,0.54998 0.7012,0.81248 1.21875,0.8125 0.51754,0 0.93749,-0.45002 0.9375,-1 0,-0.55 -0.3613,-0.81252 -1.21875,-0.8125 z M 83.063,35.09381 c -0.19624,0.0405 -0.54187,0.32323 -1.09375,0.78125 -1.81262,2.72616 -4.12715,6.3149 -4.65625,8.75 -0.52911,2.43508 4.09524,1.63092 5.65625,-0.25 1.01957,-1.22851 0.69792,-2.28391 -0.375,-1.5 -3.96002,2.89331 -4.05473,0.53496 -1.53125,-2.46875 0.45997,-0.5475 1.36511,-2.03556 1.78125,-3.40625 0.42327,-1.39412 0.54581,-1.97372 0.21875,-1.90625 z m 190.4375,0.4375 c 0.10056,-0.002 0.20394,0.0266 0.3125,0.0625 0.43422,0.14364 0.71035,2.10367 1,3.25 -0.74123,0.70086 -0.83184,1.13229 -1.65625,1.46875 -2.13308,0.81854 -2.39036,-2.27687 -0.53125,-4.28125 0.30279,-0.32647 0.57332,-0.49541 0.875,-0.5 z m -72.09375,0.25 c 0.3103,-0.0301 0.73518,0.12053 1.03125,0.125 1.92861,0.0291 1.49386,1.13199 0.6875,3.09375 -0.80636,1.96176 -0.77779,1.6398 -1.09375,2.09375 -1.18407,1.7012 -2.05402,0.0975 -1.78125,-1.59375 0.0537,-0.81637 0.20431,-1.58432 0.375,-2.375 0.0753,-0.34881 0.26048,-1.01455 0.53125,-1.25 0.0677,-0.0589 0.14657,-0.0837 0.25,-0.0937 z M 127.938,36.00006 c -0.89234,0 -1.62501,0.67498 -1.625,1.5 0,0.825 0.57358,1.15623 0.78125,1.15625 0.20765,-2e-5 1.02541,0.0863 1.5,-0.875 0.59545,-1.20621 0.40468,-1.37948 -0.65625,-1.78125 z m -36.6875,0.0937 c -2.31381,-0.045 -6.36997,5.09945 -5.9375,7.6875 0.0548,0.32775 0.67886,0.60738 0.875,0.84375 1.36569,1.64555 -0.56581,5.28245 -2.1875,7.84375 -0.28666,0.45276 0.0908,0.37846 -1.25,0.65625 -1.34311,0.27829 -4.80324,0.68886 -8.40625,0.28125 -4.42701,-0.50086 -6.47831,-0.23473 -9.125,1.125 -5.32747,2.73694 -8.14417,6.30067 -7.65625,9.625 1.53125,5.64302 6.90098,6.4277 10.84375,5.5625 5.02385,-1.26195 11.13988,-6.76761 14.78125,-12.8125 0.82411,-1.63916 2.46636,-2.31862 4.78125,-2.96875 1.96972,-0.55317 6.53947,-1.74591 6.4375,-2.125 -0.10353,-0.385 -4.34252,0.33857 -5.375,0.4375 -1.59956,0.1533 -2.65323,0.19305 -3.15625,0.25 0.15093,-0.49498 0.98188,-2.48783 2.25,-4.34375 2.07701,-3.03978 4.7741,-10.91338 4,-11.6875 -0.24052,-0.24051 -0.54446,-0.36858 -0.875,-0.375 z m -43.46875,0.15625 c -1.95127,-0.16175 -6.33963,5.5578 -5.75,7.8125 0.30331,1.15984 0.79898,1.61118 2.6875,1.65625 0.52954,0.0126 1.4299,-0.17851 1.875,-0.375 0.43579,-0.19239 1.11397,-0.79896 1.15625,-0.84375 l 0.90625,-0.96875 c 0.87125,-0.92285 -3.00131,0.41532 -3.15625,0.4375 -2.16435,0.30986 -2.14545,-1.33158 0.71875,-2.71875 3.19205,-1.54596 3.97911,-3.59387 1.90625,-4.875 -0.10634,-0.0657 -0.21367,-0.11422 -0.34375,-0.125 z m 125.40625,0.5 c 0.57354,0.007 0.81756,0.63287 0.625,1.25 -0.25675,0.82284 -0.8006,2.59738 -2,4 -1.03365,0.85785 -1.98053,0.72469 -1.78125,-0.65625 0.1988,-1.37766 1.44317,-3.73287 2.46875,-4.375 0.25639,-0.16053 0.49632,-0.22105 0.6875,-0.21875 z m -125.84375,1.1875 c 0.43627,0.0255 0.58859,0.48513 0,1.4375 -0.36253,0.5866 -2.06245,1.32587 -2.625,1.59375 -0.59867,0.28506 -0.32,-0.76838 0.46875,-1.71875 0.51434,-0.61974 1.57788,-1.19583 1.9375,-1.28125 0.0749,-0.0178 0.15643,-0.0349 0.21875,-0.0312 z m 42.84375,0.0312 c 0.83594,-0.14449 0.67277,1.55453 -0.46875,3.6875 -0.37948,1.52865 -2.00756,2.35712 -2.78125,1.65625 -0.85114,-0.77107 1.2065,-4.16373 2.8125,-5.15625 0.15983,-0.0988 0.31808,-0.16686 0.4375,-0.1875 z m 15,1.125 c -0.85747,0 -1.27743,0.44998 -0.9375,1 0.33991,0.55 0.60745,0.90623 1.125,0.90625 0.51754,0 0.93749,-0.45002 0.9375,-1 0,-0.55 -0.26755,-0.90627 -1.125,-0.90625 z M 81.96925,55.81246 c 0.19561,-0.0199 0.34163,-0.0253 0.46875,0 -0.38492,0.75832 -1.22792,2.10076 -3.96875,5.09375 -1.28169,1.39961 -3.5317,3.34409 -5,4.3125 -3.07515,2.02813 -11.0006,2.31187 -12.8125,0.5 -2.0623,-2.0623 -1.46793,-4.49908 1.90625,-6.90625 2.60414,-1.8578 3.02157,-2.44304 9.96875,-2.84375 1.47228,-0.0849 4.93624,0.28585 6.09375,0.21875 1.77687,-0.10299 2.75692,-0.31539 3.34375,-0.375 z" />
</svg>
